PathFileType	4	(X/Y/Z)	/Users/niels/Desktop/University/Third Semester/Perception and Action/Exam/Gymnastics Motion Tracking/Code for Gym Tracking/Analyzed Data/Webcam_Backflip/id1_1_baseline_Sports2D/id1_1_baseline_Sports2D_px_person00.trc
DataRate	CameraRate	NumFrames	NumMarkers	Units	OrigDataRate	OrigDataStartFrame	OrigNumFrames
29.872340425531917	29.872340425531917	11	22	m	29.872340425531917	0	235
Frame#	Time	Hip			RHip			RKnee			RAnkle			RBigToe			RSmallToe			RHeel			LHip			LKnee			LAnkle			LBigToe			LSmallToe			LHeel			Neck			Head			Nose			RShoulder			RElbow			RWrist			LShoulder			LElbow			LWrist		
		X1	Y1	Z1	X2	Y2	Z2	X3	Y3	Z3	X4	Y4	Z4	X5	Y5	Z5	X6	Y6	Z6	X7	Y7	Z7	X8	Y8	Z8	X9	Y9	Z9	X10	Y10	Z10	X11	Y11	Z11	X12	Y12	Z12	X13	Y13	Z13	X14	Y14	Z14	X15	Y15	Z15	X16	Y16	Z16	X17	Y17	Z17	X18	Y18	Z18	X19	Y19	Z19	X20	Y20	Z20	X21	Y21	Z21	X22	Y22	Z22
0	0.0	0.9544651825152073	-0.5922343734485358	0.0	0.9529862943203259	-0.587805442544456	0.0	0.9603933040901	-0.6955536956560076	0.0	0.9426767099013916	-0.8032846466628543	0.0	0.9823163348627397	-0.8239431656064743	0.0	0.9721845038384095	-0.8283758439550027	0.0	0.930871499791359	-0.8209839777004145	0.0	0.9618347558317817	-0.5878037531369571	0.0	0.9603869591827005	-0.6940713579039085	0.0	0.9456248289902456	-0.7988510695120973	0.0	0.9793107099761298	-0.8203750444117882	0.0	0.9793389299135973	-0.8180367712322043	0.0	0.9323347972133097	-0.8136015032913658	0.0	0.986967393774432	-0.43879029021211174	0.0	1.012065502880074	-0.366475264605504	0.0	1.0223898247825647	-0.41074155765790726	0.0	0.973681082265733	-0.45500839921441055	0.0	1.0209092567162026	-0.511066207348584	0.0	1.0873245551231001	-0.5361448000029111	0.0	0.9766509083590736	-0.4535408591997038	0.0	1.0150185189868088	-0.509600160936934	0.0	1.0843913685573319	-0.5317071842023157	0.0
1	0.03347578347578348	0.9536919256314383	-0.5944014735998391	0.0	0.9538821841713021	-0.5905585374269162	0.0	0.9604753680364897	-0.6960550942728756	0.0	0.9423563916797542	-0.8054279750117714	0.0	0.9855759376645961	-0.8250920416228416	0.0	0.9756720374291369	-0.8291220768572272	0.0	0.9306870396511582	-0.8223353795297758	0.0	0.95971259341211	-0.5902257840671068	0.0	0.9604440330124557	-0.6947908080077019	0.0	0.9446098398594908	-0.80093368004609	0.0	0.9835392411134931	-0.8250304849153907	0.0	0.980759195350118	-0.8196675158189282	0.0	0.9317256913562767	-0.8155628716563652	0.0	0.9898342077028659	-0.43916566830398	0.0	1.0193380738797357	-0.3709728807656618	0.0	1.0274411768219907	-0.4142924229948267	0.0	0.9780458304181756	-0.4566478453492598	0.0	1.0105773070394173	-0.5210117151551699	0.0	1.0624890919872412	-0.5624123655949488	0.0	0.9778189380903489	-0.45463656301212674	0.0	1.0049297774617316	-0.5190538168943393	0.0	1.0582874956163388	-0.5566510737718664	0.0
2	0.06695156695156695	0.9534044720317169	-0.5967388655335414	0.0	0.9547714693996245	-0.5933112685920992	0.0	0.960397278080228	-0.6967893545077493	0.0	0.9420121386321757	-0.8074788158866575	0.0	0.9865554224254065	-0.8263314035959554	0.0	0.9772026284929002	-0.829934088556175	0.0	0.9304102160167738	-0.8237655358078059	0.0	0.9583746254016776	-0.5927142693503503	0.0	0.9605475408738653	-0.6957876527230662	0.0	0.943761017531725	-0.8030406640712084	0.0	0.986160959125582	-0.8283391221514788	0.0	0.9811603790574122	-0.8213512256408921	0.0	0.9312668924092791	-0.8174999196379514	0.0	0.9929278181291222	-0.4400652474843119	0.0	1.0264558817334792	-0.3754109612643567	0.0	1.032467213330654	-0.4178483441976706	0.0	0.9821859651712976	-0.45855438726249353	0.0	0.9994196794873393	-0.5292568560435167	0.0	1.0354369969292694	-0.5845991040372527	0.0	0.97968937979716	-0.4562433786590119	0.0	0.9944435309905661	-0.5269723630883795	0.0	1.0309490674051396	-0.577558061841075	0.0
3	0.10042735042735043	0.953949228860776	-0.5992563131005078	0.0	0.9555894611429344	-0.5959949242935242	0.0	0.9601037517303297	-0.6978526160647619	0.0	0.9416297833951632	-0.8093453748368273	0.0	0.9833824704541483	-0.8277265764814864	0.0	0.9750054911237106	-0.8308673206685236	0.0	0.9299590720587864	-0.8252535781368003	0.0	0.9584642960251549	-0.5952556194302299	0.0	0.9608112046338109	-0.6971941486840062	0.0	0.9431998212123346	-0.8051990351398691	0.0	0.9860106863212542	-0.8295777786966387	0.0	0.9797558432100163	-0.8231194532309801	0.0	0.9309903901750242	-0.8194526822604276	0.0	0.9963249877974825	-0.44192257525178064	0.0	1.033346927553818	-0.37969165830902557	0.0	1.0374253255412145	-0.4214081110384553	0.0	0.9858810858475862	-0.4608933419405309	0.0	0.987126991042261	-0.5343396134739762	0.0	1.0053290759856748	-0.5991893982166298	0.0	0.9827183065388361	-0.45867504494766886	0.0	0.9834867212423052	-0.5319574632755832	0.0	1.0020913059134864	-0.591092587661834	0.0
4	0.1339031339031339	0.9553475277063811	-0.6017638171925217	0.0	0.956243502233694	-0.5984493185664631	0.0	0.959713687950621	-0.6992490693996288	0.0	0.9412639432674408	-0.8109583331692283	0.0	0.9746729895826034	-0.8292327706955679	0.0	0.9679306172452541	-0.831908746183986	0.0	0.92930756458734	-0.8266686595158637	0.0	0.960110910530307	-0.5976952184348103	0.0	0.961329289134054	-0.6989445328458064	0.0	0.9429548859220522	-0.8073512003443643	0.0	0.9820513737993206	-0.8274645269936594	0.0	0.9755770238527585	-0.8248956537701843	0.0	0.930742376430268	-0.82141430967252	0.0	0.9998929217795275	-0.44490249352915345	0.0	1.0399297582627693	-0.383729326605522	0.0	1.0422238551439378	-0.42495096887851797	0.0	0.9889922630841695	-0.46366820455979824	0.0	0.9741618074499245	-0.5354182775756422	0.0	0.9733548732098091	-0.6040902183696895	0.0	0.9867837679569045	-0.46189535685258354	0.0	0.9723584485164743	-0.5331036700425764	0.0	0.9727337142368286	-0.59549060972426	0.0
5	0.16737891737891739	0.9571838686235904	-0.6039649478002572	0.0	0.9566844241763249	-0.6004675097455834	0.0	0.9594583295202965	-0.7009532043966308	0.0	0.9410809045235639	-0.812261866731739	0.0	0.9602546276350616	-0.8306919513242398	0.0	0.9561144341587055	-0.8329904348350837	0.0	0.928540628896439	-0.8278259198944644	0.0	0.9626617284300073	-0.5997629110427302	0.0	0.9619915017562859	-0.700829932592125	0.0	0.943000935861619	-0.8092900285439142	0.0	0.9735332837476861	-0.8203886713976856	0.0	0.9676805929440154	-0.8265116813063917	0.0	0.930312839992014	-0.8232474140537152	0.0	1.0033503737372735	-0.4487349821638349	0.0	1.0460532658540558	-0.3874708638358157	0.0	1.0467353570372462	-0.42840427215753796	0.0	0.9915526382405693	-0.46665217734197495	0.0	0.9616114257643732	-0.5323662273355386	0.0	0.9422489809743776	-0.5990761442668746	0.0	0.9911855671190594	-0.4654819841166366	0.0	0.9616168863405992	-0.5301667915154904	0.0	0.9447929392438681	-0.5908327990532867	0.0
6	0.20085470085470086	0.958798830424452	-0.605576789566121	0.0	0.956913304957304	-0.6018558844276535	0.0	0.9594816950751373	-0.7028194429567491	0.0	0.9412643532515821	-0.8131895522118129	0.0	0.9423744637331692	-0.8319798983363793	0.0	0.9420703926135454	-0.8340863274255084	0.0	0.927839525120528	-0.8285860926038551	0.0	0.9650747327653743	-0.6011772871793577	0.0	0.9625159897525015	-0.702571350258961	0.0	0.9433325908127012	-0.8107429573912973	0.0	0.9606082727498533	-0.8072933572351096	0.0	0.9559559640541962	-0.8278568233872882	0.0	0.9296414226609463	-0.8247652042777488	0.0	1.0063902755245622	-0.4527704896329562	0.0	1.0515818133778638	-0.39083450331727265	0.0	1.0508583949769603	-0.43158736536837644	0.0	0.9937321616260116	-0.46936125262724493	0.0	0.950743784233183	-0.5255514949581199	0.0	0.915004624868467	-0.5855132570425006	0.0	0.9950976841642994	-0.46875854608520406	0.0	0.9519782284952016	-0.5234686521694321	0.0	0.9202962935526636	-0.5785300802892203	0.0
7	0.23433048433048434	0.9596635323680166	-0.6063315201839092	0.0	0.9569168049511313	-0.6023730442376691	0.0	0.9597256419626463	-0.704463551759062	0.0	0.9418624886182729	-0.8136678317542246	0.0	0.9265843101851241	-0.8330897978761562	0.0	0.9313306165077339	-0.8352226365716389	0.0	0.9274434263974022	-0.8289236041571981	0.0	0.9665563905932851	-0.6016483689297187	0.0	0.9626990302627886	-0.7038014474213342	0.0	0.94396707707587	-0.8114853225309968	0.0	0.9458431026049391	-0.7892391219089134	0.0	0.9426939455512148	-0.828891476161694	0.0	0.9288665908539843	-0.8257779496900063	0.0	1.0087966816397929	-0.4562235863621341	0.0	1.05650616792595	-0.3936891078313843	0.0	1.0545632421077795	-0.4342217508180231	0.0	0.9957242588612968	-0.47114155016336373	0.0	0.9425769509333073	-0.515618335631458	0.0	0.8937062431833821	-0.565642129118192	0.0	0.9980291136456406	-0.4709748509263273	0.0	0.9442042742772336	-0.513756892968714	0.0	0.9006886405380042	-0.5606111628163607	0.0
8	0.2678062678062678	0.9595652913552135	-0.6059643296000923	0.0	0.956617382656519	-0.6017012299865864	0.0	0.9600409138018987	-0.7053465663536627	0.0	0.942752298768288	-0.8136073632092846	0.0	0.9197382710169616	-0.8339844767792216	0.0	0.9296871731202723	-0.836321087594867	0.0	0.927571369614001	-0.8288250733729084	0.0	0.9667083540480785	-0.6008561299888155	0.0	0.9625339528852553	-0.7040831132353675	0.0	0.9448751459926625	-0.8113506205463727	0.0	0.9351147346637411	-0.7716955821729901	0.0	0.9333477971465344	-0.8294674587047004	0.0	0.9282113692742456	-0.826043956785648	0.0	1.0105303264193655	-0.458442998694857	0.0	1.060955958838277	-0.39592257716050333	0.0	1.0578863471790674	-0.43607096445821864	0.0	0.9976899240912113	-0.4714316671692362	0.0	0.9376049640415358	-0.503466459865188	0.0	0.8790671760740124	-0.5420430461072615	0.0	0.9999500147826179	-0.47152761802871324	0.0	0.938846486847264	-0.5021048126722728	0.0	0.8865132230282461	-0.5393648330878952	0.0
9	0.3012820512820513	0.9585167355200612	-0.6042554544414881	0.0	0.9558438533560989	-0.5995591139126267	0.0	0.9603220671425943	-0.7049878747310184	0.0	0.9437298499324303	-0.8128279014204947	0.0	0.9251664558811311	-0.8344035727552614	0.0	0.9378645602219207	-0.8370281753612173	0.0	0.9282709469337643	-0.8280769699849688	0.0	0.965372726928258	-0.59853709084005	0.0	0.9621363467147827	-0.7030412837349193	0.0	0.9459322034362491	-0.810156732588063	0.0	0.9344379376640465	-0.7638053558356569	0.0	0.9332825657810359	-0.8291978627137374	0.0	0.9278384304809307	-0.8252382764572521	0.0	1.0117584883668382	-0.45911123038920043	0.0	1.0651665584355734	-0.3975025686502744	0.0	1.0609297573993999	-0.43707053837031135	0.0	0.9997342063531078	-0.47003575669175257	0.0	0.9356524817865085	-0.4902105655161157	0.0	0.8705717370510284	-0.5172654160514095	0.0	1.0011982074612285	-0.4702071884574718	0.0	0.9360056622077266	-0.48971441802524457	0.0	0.8775353650652269	-0.5170450189545209	0.0
10	0.33475783475783477	0.9566188741894223	-0.6010425245542542	0.0	0.9543895010081536	-0.5957999316459262	0.0	0.9605660877918878	-0.7030969823911252	0.0	0.944623557432422	-0.8110418969940247	0.0	0.9398286839648614	-0.8338886265790878	0.0	0.9507461141863996	-0.8367887944240875	0.0	0.9293712985675596	-0.8262527660288108	0.0	0.9626265522812049	-0.5945859385285347	0.0	0.9616727498177353	-0.7004772386623599	0.0	0.9469520044421623	-0.8076913365705394	0.0	0.9442649718086792	-0.7702814752006104	0.0	0.9424671964484499	-0.827608425418435	0.0	0.9277648727267575	-0.8230171253712738	0.0	1.0128046677806046	-0.45830391440860285	0.0	1.0693860507449748	-0.39848840442542344	0.0	1.0638455230928785	-0.4373120557570392	0.0	1.0018731531750344	-0.46716463261973673	0.0	0.9359814887158047	-0.4769461818871896	0.0	0.8669269468782139	-0.4934409447354679	0.0	1.0023338698101436	-0.467294654192645	0.0	0.9353936007614729	-0.477647517540035	0.0	0.8730690354354497	-0.49546642168694316	0.0
